<svg width="24" height="23" viewBox="0 0 24 23" fill="none" xmlns="http://www.w3.org/2000/svg">
<g clip-path="url(#clip0)">
<path fill-rule="evenodd" clip-rule="evenodd" d="M12 0C5.373 0 0 4.93996 0 11.0349C0 15.71 3.163 19.7028 7.627 21.3103C7.522 20.4376 7.427 19.0987 7.669 18.146C7.887 17.2843 9.076 12.6607 9.076 12.6607C9.076 12.6607 8.717 11.9995 8.717 11.022C8.717 9.48818 9.684 8.34239 10.888 8.34239C11.911 8.34239 12.406 9.04955 12.406 9.89648C12.406 10.8427 11.751 12.2579 11.412 13.5702C11.129 14.6682 12.011 15.5647 13.189 15.5647C15.322 15.5647 16.961 13.4966 16.961 10.5117C16.961 7.86973 14.897 6.0223 11.949 6.0223C8.535 6.0223 6.531 8.37734 6.531 10.8105C6.531 11.7586 6.928 12.7766 7.424 13.3283C7.522 13.4378 7.536 13.5343 7.507 13.6456L7.174 14.8962C7.121 15.0985 7 15.1417 6.772 15.0443C5.273 14.4024 4.336 12.3876 4.336 10.7692C4.336 7.28856 7.086 4.09119 12.265 4.09119C16.428 4.09119 19.663 6.81958 19.663 10.4648C19.663 14.2681 17.056 17.3285 13.436 17.3285C12.22 17.3285 11.077 16.7482 10.686 16.0613L9.938 18.6849C9.667 19.644 8.936 20.8459 8.446 21.5779C9.57 21.8969 10.763 22.0698 12 22.0698C18.627 22.0698 24 17.1289 24 11.0349C24 4.93996 18.627 0 12 0V0Z" fill="#7B7789"/>
</g>
<defs>
<clipPath id="clip0">
<rect width="24" height="22.0698" fill="white"/>
</clipPath>
</defs>
</svg>
