<svg width="24" height="14" viewBox="0 0 24 14" fill="none" xmlns="http://www.w3.org/2000/svg">
<path d="M22 1.83926H15V0H22V1.83926ZM23.726 11.0355C23.284 12.2283 21.697 13.7944 18.625 13.7944C15.551 13.7944 13.061 12.2044 13.061 8.57554C13.061 4.97979 15.386 3.13134 18.527 3.13134C21.609 3.13134 23.491 4.77012 23.902 7.20161C23.98 7.66695 24.011 8.29413 23.997 9.16962H15.97C16.1 12.1225 19.453 12.2154 20.558 11.0355H23.726ZM16.04 7.35703H21.005C20.9 5.93437 19.869 5.31637 18.528 5.31637C17.062 5.31637 16.251 6.02265 16.04 7.35703ZM6.466 13.7834H0V0.0193121H6.953C12.429 0.0938021 12.533 5.02577 9.67299 6.37027C13.134 7.529 13.25 13.7834 6.466 13.7834ZM3 5.51777H6.584C9.09199 5.51777 9.48999 2.75889 6.272 2.75889H3V5.51777ZM6.391 8.27666H3V11.0503H6.341C9.39599 11.0503 9.20899 8.27666 6.391 8.27666Z" fill="#7B7789"/>
</svg>
